<mxfile host="app.diagrams.net" modified="2021-08-17T01:58:03.936Z" agent="5.0 (Macintosh; Intel Mac OS X 10_14_6) AppleWebKit/537.36 (KHTML, like Gecko) Chrome/92.0.4515.131 Safari/537.36" etag="QXLZwZOyKfhcgvR1gT5v" version="14.8.0" type="github">
  <diagram id="eseIqtM9uzE_S86qqE30" name="Page-1">
    <mxGraphModel dx="2013" dy="668" grid="1" gridSize="10" guides="1" tooltips="1" connect="1" arrows="1" fold="1" page="1" pageScale="1" pageWidth="827" pageHeight="1169" math="0" shadow="0">
      <root>
        <mxCell id="0" />
        <mxCell id="1" parent="0" />
        <mxCell id="eI-PRouvu91oHGxH_K3C-1" value="0,0,0&lt;br&gt;0,0,0&lt;br&gt;0,0,0" style="ellipse;whiteSpace=wrap;html=1;aspect=fixed;" vertex="1" parent="1">
          <mxGeometry x="310" y="120" width="50" height="50" as="geometry" />
        </mxCell>
        <mxCell id="eI-PRouvu91oHGxH_K3C-5" value="P(s) =&amp;nbsp;[0.1 0.1 0.1 0.1 0.1 0.1 0.1 0.1 0.1 0.1]&lt;br&gt;V(s) = 0" style="rounded=0;whiteSpace=wrap;html=1;" vertex="1" parent="1">
          <mxGeometry x="414" y="120" width="246" height="60" as="geometry" />
        </mxCell>
        <mxCell id="eI-PRouvu91oHGxH_K3C-6" value="" style="endArrow=classic;html=1;exitX=1;exitY=0.5;exitDx=0;exitDy=0;" edge="1" parent="1" source="eI-PRouvu91oHGxH_K3C-1">
          <mxGeometry width="50" height="50" relative="1" as="geometry">
            <mxPoint x="370" y="290" as="sourcePoint" />
            <mxPoint x="420" y="145" as="targetPoint" />
          </mxGeometry>
        </mxCell>
        <mxCell id="eI-PRouvu91oHGxH_K3C-7" value="N(s) = 0&lt;br&gt;Valid(s) =&amp;nbsp;[1 1 1 1 1 1 1 1 1 0]&lt;br&gt;P(s) =&amp;nbsp;[0.11111111 0.11111111 0.11111111 0.11111111 0.11111111 0.11111111, 0.11111111 0.11111111 0.11111111 0.&amp;nbsp; &amp;nbsp; &amp;nbsp; &amp;nbsp; ]" style="rounded=0;whiteSpace=wrap;html=1;" vertex="1" parent="1">
          <mxGeometry x="-70" y="120" width="350" height="60" as="geometry" />
        </mxCell>
      </root>
    </mxGraphModel>
  </diagram>
</mxfile>
